<?xml version="1.0" standalone="no"?>
<!DOCTYPE svg PUBLIC "-//W3C//DTD SVG 20010904//EN"
 "http://www.w3.org/TR/2001/REC-SVG-20010904/DTD/svg10.dtd">
<svg version="1.0" xmlns="http://www.w3.org/2000/svg"
 width="618.000000pt" height="618.000000pt" viewBox="0 0 6180 6180"
 preserveAspectRatio="xMidYMid meet"
 color="white">

  <defs>
    <!-- White glow around the filled silhouette -->
    <filter id="white-glow" x="-30%" y="-30%" width="160%" height="160%">
      <feGaussianBlur stdDeviation="90" result="blur"/>
      <feColorMatrix in="blur" type="matrix"
        values="1 0 0 0 0
                0 1 0 0 0
                0 0 1 0 0
                0 0 0 0.55 0" result="glow"/>
      <feMerge>
        <feMergeNode in="glow"/>
        <feMergeNode in="SourceGraphic"/>
      </feMerge>
    </filter>

    <!-- Slight inner glow to keep edges bright -->
    <filter id="inner-glow" x="-20%" y="-20%" width="140%" height="140%">
      <feGaussianBlur stdDeviation="24" result="b2"/>
      <feColorMatrix in="b2" type="matrix"
        values="1 0 0 0 0
                0 1 0 0 0
                0 0 1 0 0
                0 0 0 0.75 0" result="g2"/>
      <feMerge>
        <feMergeNode in="g2"/>
        <feMergeNode in="SourceGraphic"/>
      </feMerge>
    </filter>
  </defs>

  <!-- ✅ 背景已移除：原来那条 M0 3090... 的大方块 path 已删 -->
  <!-- ✅ 人物使用 currentColor，可由外部 CSS 控制颜色 -->
  <g transform="translate(0.000000,6180.000000) scale(1.000000,-1.000000)"
     fill="currentColor" stroke="none"
     filter="url(#white-glow)">

    <g filter="url(#inner-glow)">
      <!-- 下面这些 path 保留自你原 SVG（人物+细节） -->
      <path d="M3041 5893 c-13 -3 -38 -13 -56 -23 -18 -10 -43 -24 -56 -32 -54 -30
-143 -132 -160 -182 -27 -77 -16 -199 31 -376 5 -19 11 -51 14 -70 6 -47 51
-172 88 -242 35 -66 111 -144 159 -165 44 -19 82 -10 140 29 46 32 74 73 124
178 63 133 78 171 80 202 7 123 18 228 27 261 21 69 -22 225 -71 259 -10 7
-37 37 -60 65 -26 33 -57 59 -86 72 -47 21 -132 33 -174 24z"/>
      <path d="M2916 4574 c-9 -8 -16 -24 -16 -35 0 -10 -30 -51 -67 -90 -38 -40
-66 -74 -64 -78 2 -3 -8 -12 -23 -19 -15 -8 -30 -20 -33 -28 -3 -8 -53 -43
-112 -78 -102 -62 -149 -100 -150 -121 0 -5 -26 -13 -58 -16 -32 -3 -77 -15
-100 -27 -23 -12 -49 -22 -56 -22 -8 0 -20 -6 -26 -13 -6 -8 -30 -19 -53 -26
-24 -7 -58 -24 -75 -37 -18 -14 -33 -22 -33 -19 0 4 -18 -4 -40 -16 -22 -13
-40 -26 -40 -31 0 -4 -6 -8 -13 -8 -13 0 -57 -52 -57 -68 0 -5 -12 -19 -26
-33 -31 -28 -55 -73 -89 -166 -35 -94 -35 -91 -41 -248 -5 -143 -23 -249 -55
-320 -9 -22 -21 -60 -24 -85 -8 -50 -51 -206 -66 -232 -5 -10 -9 -26 -9 -35 0
-10 -18 -72 -40 -137 -22 -66 -40 -121 -40 -124 0 -2 17 -1 38 2 34 6 36 5 18
-9 -11 -8 -23 -15 -27 -15 -4 0 -20 -27 -35 -60 -15 -33 -33 -65 -41 -72 -13
-10 -12 -13 4 -19 14 -5 8 -9 -24 -18 -24 -7 -43 -16 -43 -21 0 -6 -27 -43
-60 -84 -33 -41 -60 -78 -60 -83 0 -5 -13 -24 -30 -43 -16 -19 -29 -41 -30
-47 0 -7 -4 -13 -10 -13 -5 0 -10 -6 -10 -14 0 -7 -11 -21 -25 -30 -16 -11
-22 -22 -18 -32 5 -14 16 -15 64 -11 67 7 112 26 105 43 -5 14 74 47 95 39 17
-6 211 153 236 193 9 15 24 36 33 47 9 11 26 43 37 70 12 28 36 82 54 120 18
39 33 75 34 80 2 6 14 47 29 93 14 46 26 92 26 102 0 10 5 22 10 25 6 3 10 15
10 25 0 10 4 20 10 22 11 3 60 131 60 155 0 8 23 53 50 100 50 84 50 86 50
171 0 92 9 97 28 17 10 -41 47 -94 58 -83 1 2 -4 32 -12 67 -21 89 -11 100 15
15 18 -61 53 -124 117 -212 10 -13 18 -31 19 -40 4 -49 53 -192 65 -192 5 0
12 -15 15 -32 4 -18 20 -73 36 -122 20 -58 26 -92 20 -100 -6 -7 -3 -29 8 -61
28 -81 34 -118 16 -111 -14 5 -21 -7 -15 -29 2 -5 4 -87 4 -182 1 -138 -1
-170 -11 -161 -9 7 -14 5 -19 -8 -3 -11 -16 -44 -30 -74 -43 -98 -49 -209 -16
-291 6 -15 8 -30 4 -34 -4 -4 23 -4 61 0 37 3 67 4 67 2 0 -3 -17 -11 -37 -18
-43 -13 -85 -43 -76 -52 3 -4 -2 -10 -11 -13 -24 -9 -1 -24 36 -24 15 0 30 -4
33 -10 4 -6 -10 -10 -34 -10 -23 0 -41 -4 -41 -10 0 -5 -15 -10 -33 -10 -22 0
-40 -8 -54 -23 l-20 -24 52 -26 c100 -53 350 -197 341 -197 -5 0 -68 31 -141
70 -114 60 -250 120 -272 120 -4 0 15 -23 42 -52 49 -51 32 -43 -33 17 -19 16
-32 24 -30 17 2 -8 -6 -19 -16 -25 -35 -22 -61 -50 -48 -55 33 -11 174 -111
227 -162 62 -60 125 -91 111 -55 -6 17 -5 17 16 1 31 -22 29 -21 137 -50 121
-33 267 -30 413 7 53 14 101 28 107 31 12 8 61 -3 61 -14 0 -4 -26 -13 -58
-19 -32 -6 -67 -18 -78 -26 -17 -14 -9 -15 87 -13 59 2 103 5 98 8 -4 3 49 25
119 49 175 60 209 79 315 177 50 47 127 109 170 137 42 29 77 55 77 60 0 23
-23 45 -57 56 -32 11 -49 10 -98 -3 -51 -13 -57 -13 -41 0 11 7 23 14 28 14
18 0 6 19 -14 23 -13 2 -4 5 19 6 30 1 48 8 63 24 l21 22 -48 15 -48 15 57 3
c52 3 57 5 62 30 13 59 -5 171 -40 249 -8 17 -14 36 -14 42 0 21 -43 96 -47
84 -10 -27 -21 -11 -13 17 5 17 10 100 11 186 1 85 6 175 10 199 5 24 10 84
13 132 5 88 32 215 60 276 8 17 24 64 36 102 12 39 37 95 55 125 19 31 52 91
75 135 37 70 44 70 23 1 -5 -18 -4 -18 26 0 22 13 34 30 42 59 17 69 22 72 30
17 4 -29 13 -67 20 -85 31 -80 51 -125 75 -169 31 -60 67 -166 60 -183 -2 -7
6 -34 19 -61 14 -27 25 -56 25 -64 0 -8 14 -39 30 -69 17 -30 30 -60 30 -67 0
-22 133 -274 144 -274 6 0 21 -21 33 -47 22 -46 83 -123 98 -123 4 0 18 -9 32
-20 14 -11 36 -20 49 -20 13 0 24 -5 24 -12 0 -6 10 -2 23 10 28 27 38 28 31
5 -5 -15 -3 -15 10 1 19 24 20 45 4 83 -7 15 -12 33 -13 39 -1 23 -40 84 -57
90 -10 3 -18 11 -18 19 0 8 -9 17 -21 20 -11 4 -18 13 -15 20 2 7 -6 29 -20
48 -13 20 -24 44 -24 53 0 9 -16 32 -36 50 -31 30 -33 34 -15 34 29 0 28 36
-3 133 -13 41 -27 95 -31 119 -4 23 -11 50 -16 59 -5 9 -17 54 -27 100 -10 46
-28 103 -40 127 -19 39 -29 77 -47 177 -3 17 -8 71 -11 120 -10 163 -60 385
-100 441 -11 14 -28 41 -39 59 -30 49 -116 126 -147 132 -16 3 -28 9 -28 12 0
4 -20 18 -45 30 -25 12 -45 26 -45 31 0 4 -26 18 -57 30 -32 12 -87 34 -123
48 -49 20 -89 28 -160 32 l-95 5 58 8 c31 5 57 12 57 16 0 4 -12 14 -27 21
-16 8 -63 38 -106 67 -43 29 -82 53 -87 53 -14 0 -149 151 -162 182 -7 15 -17
27 -23 25 -5 -2 -17 12 -26 32 l-15 36 -105 2 c-117 2 -186 11 -195 24 -9 15
-71 10 -88 -7z"/>
      <path d="M2084 2452 c-47 -23 -81 -61 -104 -113 -11 -27 -25 -49 -30 -49 -10
0 -41 -65 -38 -78 3 -12 -25 -62 -34 -62 -5 0 -6 -4 -3 -10 3 -5 2 -10 -3 -10
-4 0 -18 -22 -30 -48 -33 -73 -79 -137 -106 -150 -13 -6 -46 -39 -72 -74 -27
-35 -83 -97 -124 -138 -66 -65 -75 -78 -66 -96 11 -24 45 -38 130 -53 42 -8
63 -8 72 0 12 10 43 9 253 -7 44 -3 79 0 113 12 52 17 122 70 113 85 -7 11 42
109 54 109 5 0 23 35 39 78 28 71 30 87 31 214 1 76 4 145 7 153 4 8 2 21 -4
28 -5 6 -13 28 -17 47 -9 42 -46 110 -60 110 -6 0 -18 13 -28 29 -20 34 -54
43 -93 23z"/>
      <path d="M4086 2445 c-10 -10 -17 -12 -21 -4 -12 18 -104 -194 -103 -239 0
-38 -10 -100 -18 -114 -15 -23 -4 -146 17 -200 11 -29 32 -87 45 -129 15 -48
35 -88 54 -107 16 -18 30 -35 30 -39 0 -5 23 -19 51 -31 42 -20 62 -23 122
-19 40 2 83 7 97 11 14 5 93 9 176 11 158 3 206 13 212 48 2 12 -6 21 -25 27
-18 7 -48 39 -88 96 -33 47 -74 98 -91 114 -17 15 -33 32 -35 38 -2 6 -20 21
-38 34 -38 25 -99 121 -131 206 -11 29 -28 65 -39 80 -10 15 -42 65 -71 112
-74 117 -107 141 -144 105z"/>
      <path d="M3945 1308 c-53 -20 -126 -70 -219 -151 -116 -101 -156 -128 -234
-159 -35 -14 -64 -29 -65 -34 -3 -16 66 -33 135 -33 72 -1 104 16 41 21 -52 4
-44 22 14 29 26 4 62 11 80 17 17 6 34 8 36 5 10 -10 48 9 72 35 l25 27 0 -23
c0 -20 4 -22 23 -16 27 9 83 23 117 30 74 14 197 98 187 127 -7 21 -42 14
-143 -30 -58 -25 -108 -42 -111 -40 -3 3 10 12 28 21 72 31 134 80 137 109 3
22 -1 27 -20 28 -13 1 -26 1 -30 0 -5 0 -8 3 -8 8 0 5 -10 13 -21 16 -17 6
-19 9 -8 16 19 12 1 10 -36 -3z"/>
      <path d="M2140 1183 c0 -13 85 -84 109 -90 14 -4 47 -19 73 -34 27 -16 48 -24
48 -20 0 17 -81 79 -150 115 -70 37 -80 41 -80 29z"/>
    </g>
  </g>
</svg>